<?xml version="1.0" encoding="UTF-8"?>
<svg enable-background="new 0 0 107.373 138.498" viewBox="0 0 107.373 138.498" xmlns="http://www.w3.org/2000/svg">
 <defs>
  <linearGradient id="c" x1="-258.11" x2="-256.16" gradientTransform="matrix(76.2 76.201 76.201 -76.2 -15540 54802)" gradientUnits="userSpaceOnUse">
   <stop stop-color="#fff" offset="0"/>
   <stop offset="1"/>
  </linearGradient>
  <linearGradient id="b" x1="7.3916" x2="103.56" y1="96.979" y2="94.122" gradientUnits="userSpaceOnUse">
   <stop stop-color="#ffd53d" offset="0"/>
   <stop stop-color="#fdd33a" offset=".3017"/>
   <stop stop-color="#f6cb30" offset=".5348"/>
   <stop stop-color="#eabe20" offset=".7449"/>
   <stop stop-color="#daac09" offset=".9404"/>
   <stop stop-color="#d4a500" offset="1"/>
  </linearGradient>
  <linearGradient id="a" x1="-254.84" x2="-252.83" gradientTransform="matrix(0 126.68 126.68 0 -58426 32328)" gradientUnits="userSpaceOnUse">
   <stop stop-color="#df9000" offset="0"/>
   <stop stop-color="#9f7800" offset="1"/>
  </linearGradient>
 </defs>
 <path d="m54.757,61.18c0-1.062-1.443-1.016-2.15-.79-.098,1.213 1.243.958-.016,2.763 1.101-.291 1.824-.95 2.166-1.973" fill="#ffe600"/>
 <path d="m33.463,37.514c0-7.261 1.527-16.303 8.889-19.698 4.861-2.24 13.018-2.063 18.239-1.028 14.832,2.936 12.472,22.021 12.472,33.375 0,5.101-1.444,6.402 3.714,6.402 1.219,0 14.085.146 14.085-.139 0-10.168 1.522-21.672-.756-31.662-7.526-33.018-66.112-33.018-73.64,0-2.277,9.99-.755,21.494-.755,31.662 0,.287 11.615.139 12.679.139 6.193,0 5.073-.207 5.073-6.402v-12.649" fill="#e5e5e5"/>
 <path d="m71.7,19.941c-4.349-6.429-9.086-6.406-16.307-5.826-7.102.572-15.802.732-19.79,7.71-3.052,5.339-3.759,11.359-4.296,17.332-.289,3.198-.555,6.421-1.109,9.585-.706,4.005-3.457,3.632-5.963,5.811l9.787.07c0-7.52-.462-15.184.083-22.688 1.012-13.883 13.316-17.22 25.258-15.495 13.731,1.982 13.962,14.593 13.962,25.635v12.384c0,.657 8.205,4.556 8.205-.422-6.299.091-6.443-9.898-6.427-14.154 .03-7.643 1.021-12.914-3.403-19.942" fill="#c6c6c6"/>
 <path d="m47.417.296c-17.391,0-31.715,14.199-31.715,31.575 0,3.959-1.722,24.911 1.53,24.911h16.31c1.553,0 .709-11.14.709-12.877 0-12.75.771-27.244 16.906-27.244 5.92,0 12.296-.561 16.8,4.094 4.868,5.029 5.099,12.504 5.099,19.08v16.283c0,1.453 11.545.665 13.279.665 5.049,0 5.313.984 5.313-3.971v-18.592c0-15.775-8.867-29.835-25.06-33.235-6.184-1.3-12.89-.689-19.171-.689m-30.922,31.074c0-35.45 57.622-41.998 71.481-12.795 5.009,10.554 2.878,24.71 2.878,36.059 0,3.021-8.366,1.455-10.915,1.455-7.126,0-6.089-.091-6.089-7.175 0-12.017 1.714-31.33-14.633-32.86-5.098-.476-11.916-.85-16.625,1.318-7.579,3.485-9.14,12.727-9.14,20.196v15.638c0,5.167-6.429,2.883-10.882,2.883-5.833,0-6.076.979-6.076-4.8v-18.698c.001-.406.001-.815.001-1.221" fill="url(#c)"/>
 <path d="m74.351,8.301c2.25,7.692-11.321-.589-14.914-1.01-5.728-.67-11.808.859-17.245,2.53-2.785.854-7.215,3.352-10.229,2.701-2.083-.451-.345-3.624.497-4.429 3.296-3.156 8.569-4.389 12.929-4.959 5.06-.663 26.812-2.193 28.962,5.167" fill="#c6c6c6"/>
 <path d="m19.794,29.649c-.808,5.069-.499,10.577-.188,15.674 .077,1.288 2.007,8.92 3.256,3.89 1.197-4.824.083-10.516-.307-15.388-.136-1.734 1.462-14.972 2.432-14.509-2.635-1.253-5.003,9.135-5.193,10.333" fill="#fff"/>
 <path d="m71.133,16.734c1.756,1.653 3.757,3.805 4.546,6.142 .904,2.672-1.422,3.55-2.854,1.33-1.643-2.551-2.668-5.846-5.102-7.792-.608-.487-5.849-3.023-5.715-3.788 .427-2.399 8.629,3.641 9.125,4.108" fill="#fff"/>
 <path d="m57.991,3.386c-.667,1.449-3.473,1.021-4.687,1.106-4.558.318-9.06,1.457-13.033,3.749-1.651.952-10.735,9.619-12.53,8.196-5.672-4.507 7.038-11.057 9.428-11.887 1.374-.478 21.912-3.526 20.822-1.164" fill="#fff"/>
 <path d="m84.633 15.285c1.854 3.186 8.464 17.998 3.315 20.747-2.18 1.163-3.84-12.51-4.433-14.133-1.434-3.927-3.298-6.686-6.969-8.79-1.846-1.058-6.355-2.05-7.356-4.117-1.555-3.215 5.489-2.769 6.772-2.148 3.537 1.715 6.709 5.069 8.671 8.441" fill="#fff"/>
 <path d="m106.442,119.543c0,15.563-16.803,17.455-28.827,17.455h-35.917c-10.132,0-22.237,1.413-31.599-2.989-11.418-5.37-9.194-18.338-9.194-28.765 0-10.454-.414-21.004.095-31.454 .654-13.485 6.923-19.35 20.005-19.35h66.495c16.627,0 18.942,12.089 18.942,26.368v38.735" fill="url(#b)"/>
 <path d="m94.229,106.979c3.975.198 1.291,5.347.112,6.991-4.356,6.093-11.635,10.018-18.534,12.465-12.174,4.317-25.604,4.537-38.266,2.61-7.056-1.072-24.077-3.506-26.72-12.031-3.099-10.001 15.294-4.391 18.506-3.341 12.626,4.135 24.352,6.559 37.719,5.116 6.896-.746 14.029-2.416 19.5-6.912 2.257-1.852 4.429-5.064 7.683-4.898" fill="#ffe45c"/>
 <path d="m100.259,88.635c0,3.883.878,13.111-2.885,15.984-2.182,1.664-3.929-1.259-4.48-3.014-4.209-13.383 3.196-27.977-10.471-37.687-1.68-1.194-5.415-2.291-6.503-4.09-1.083-1.788 5.825-2.245 6.531-2.177 14.289,1.341 17.808,19.593 17.808,30.984" fill="#c79c00"/>
 <path d="m11.523,72.528c-1.634,7.877-2.156,17.012.984,24.602 2.238,5.411 9.856,11.733 15.704,7.029 8.309-6.681 1.356-27.023 13.844-29.855 6.815-1.545 14.532-.933 20.396-5.484 3.733-2.899 1.795-6.182-1.883-7.875-12.575-5.788-45.331-6.293-49.045,11.583" fill="#ffe45c"/>
 <path d="m9.031 127v-37.881c0-13.418-0.844-31.963 17.216-31.963h73.511c-4.673-3.345-10.843-2.717-16.301-2.717h-65.69c-19.283 0-16.862 21.031-16.862 34.84 0 12.786-5.038 38.213 9.402 44.823-0.904-2.253-1.276-4.683-1.276-7.102" fill="#ffc800"/>
 <path d="m89.772,54.44h-61.733c-8.29,0-19.589-1.701-24.273,6.911-4.839,8.896-2.861,22.674-2.861,32.56 0,9.431-2.283,22.323.923,31.45 4.283,12.189 20.083,11.638 30.735,11.638h37.358c10.37,0 23.576,1.565 31.793-5.912 8.771-7.981 4.728-29.889 4.728-40.305 0-13.715 2.837-36.342-16.67-36.342m13.432,56.3c0,28.007-41.422,21.026-59.807,21.026-9.479,0-21.106,1.453-29.939-2.51-12.197-5.472-10.314-19.894-10.314-30.956 0-10.147-1.815-22.972 1.312-32.82 3.657-11.517 15.991-10.23 25.699-10.23h38.347c8.824,0 21.707-1.861 28.947,3.919 6.777,5.41 5.286,15.995 5.388,23.759 .123,9.27.245,18.541.367,27.812" fill="#ffb600"/>
 <path d="m17.332,53.535c-16.414,0-17.332,15.473-17.332,28.202v35.029c0,26.764 34.278,21.139 52.85,21.139 17.913,0 54.497,6.022 54.497-20.328v-34.802c0-10.9.524-26.338-13.127-28.86-12.377-2.288-26.529-.38-39.023-.38h-37.865m-15.521,66.008v-30.263c0-9.396-2.441-24.733 5.753-31.166 5.818-4.566 17.395-2.769 24.321-2.769h39.106c7.541,0 17.103-1.443 24.492.734 11.837,3.489 10.054,19.266 10.054,29.061v33.668c0,14.442-14.181,17.284-25.958,17.284h-42.153c-12.864.001-35.615,1.685-35.615-16.549" fill="url(#a)"/>
</svg>
